<svg xmlns="http://www.w3.org/2000/svg" width="2048" zoomAndPan="magnify" viewBox="0 0 1536 1536" height="2048" preserveAspectRatio="xMidYMid meet" xmlns:v="https://vecta.io/nano"><defs><clipPath id="A"><path d="M438.633 562h658.5v592.891h-658.5zm0 0" clip-rule="nonzero"/></clipPath></defs><path fill="#fff" d="M1294.199 683.762l.48-17.281c0-222.719-181.32-403.922-404.039-403.922-153.84 0-294.359 88.922-361.801 225.242-34.918-23.039-75.719-35.52-118.559-35.52-113.762 0-207.242 88.68-214.801 200.641C79.32 695.16 0 806.641 0 931.801c0 163.68 133.32 297 297.121 297h965.398c150.84 0 273.48-122.641 273.48-273.48 0-140.039-105.84-255.84-241.801-271.559zm0 0"/><g clip-path="url(#A)"><path d="M767.883 562.238a21.94 21.94 0 0 0-10.371 2.617l-307.09 153.52v.047c-7.23 3.773-11.773 11.258-11.789 19.418a21.96 21.96 0 0 0 11.789 19.422v.043l306.957 153.438c3.219 1.762 6.832 2.691 10.504 2.699 3.621-.004 7.184-.898 10.371-2.617l306.871-153.434.215-.086v-.043c7.234-3.777 11.777-11.258 11.789-19.422-.012-8.16-4.555-15.641-11.789-19.418v-.047L778.387 564.941a21.94 21.94 0 0 0-10.504-2.703zm307.301 249.211l-43.898 21.949v195.879c-13.074 7.602-21.949 21.59-21.949 37.813 0 24.254 43.898 87.797 43.898 87.797s43.898-63.543 43.898-87.797c0-16.219-8.875-30.211-21.949-37.812zm-504.848 54.832v91.059c0 60.605 88.434 109.75 197.547 109.75s197.551-49.145 197.551-109.75v-91.059l-167.582 83.813c-1.844.922-3.687 1.68-5.574 2.316-7.945 3.27-16.117 4.93-24.395 4.93-8.254 0-16.406-1.66-24.309-4.93a41.6 41.6 0 0 1-5.656-2.359zm0 0"/></g></svg>