<svg xmlns="http://www.w3.org/2000/svg" width="2048" zoomAndPan="magnify" viewBox="0 0 1536 1536" height="2048" preserveAspectRatio="xMidYMid meet" xmlns:v="https://vecta.io/nano"><defs><clipPath id="A"><path d="M438.633 562h658.5v592.891h-658.5zm0 0" clip-rule="nonzero"/></clipPath></defs><path d="M1294.199 683.762l.48-17.281c0-222.719-181.32-403.922-404.039-403.922-153.84 0-294.359 88.922-361.801 225.242-34.918-23.039-75.719-35.52-118.559-35.52-113.762 0-207.242 88.68-214.801 200.641C79.32 695.16 0 806.641 0 931.801c0 163.68 133.32 297 297.121 297h965.398c150.84 0 273.48-122.641 273.48-273.48 0-140.039-105.84-255.84-241.801-271.559zm0 0"/><g clip-path="url(#A)"><path fill="#fff" d="M767.996 562.262a21.97 21.97 0 0 0-10.379 2.617L450.426 718.453v.043c-7.234 3.777-11.777 11.262-11.793 19.426.016 8.164 4.559 15.648 11.793 19.43v.043l307.063 153.488c3.219 1.762 6.832 2.691 10.504 2.699 3.625 0 7.188-.898 10.379-2.617l306.973-153.488.215-.082v-.043a21.96 21.96 0 0 0 0-38.855v-.043L778.5 564.965a21.94 21.94 0 0 0-10.504-2.703zm307.402 249.293l-43.914 21.957v195.945c-13.078 7.602-21.957 21.598-21.957 37.824 0 24.262 43.918 87.828 43.918 87.828s43.91-63.562 43.91-87.824c0-16.227-8.879-30.223-21.957-37.828zm-505.02 54.852v91.09c0 60.625 88.465 109.789 197.617 109.789s197.617-49.164 197.617-109.789v-91.09l-167.641 83.84a42.73 42.73 0 0 1-5.578 2.316c-7.945 3.27-16.121 4.934-24.398 4.934-8.258 0-16.414-1.66-24.316-4.934-1.91-.633-3.797-1.414-5.66-2.359zm0 0"/></g></svg>